<?xml version="1.0" encoding="utf-8"?>
<!-- Generator: Adobe Illustrator 19.0.0, SVG Export Plug-In . SVG Version: 6.00 Build 0)  -->
<svg version="1.1" id="Layer_1" xmlns="http://www.w3.org/2000/svg" xmlns:xlink="http://www.w3.org/1999/xlink" x="0px" y="0px"
	 viewBox="0 0 480 480" style="enable-background:new 0 0 480 480;" xml:space="preserve">
<style type="text/css">
	.st0{fill:#00BCD4;}
</style>
<g>
	<path class="st0" d="M50.3,306.1c0.6-15.3,0.7-30.6,2.1-45.8c2.1-22.9,6.7-45.4,14.4-67.1c21.8-61.5,63.1-105.6,120.5-135.4
		c38-19.7,78.6-31.4,120.6-38.7c31.3-5.5,62.9-8.9,94.7-9c20.8-0.1,41.6,0.5,62.4,1.1c7.8,0.2,14.3,6.3,14.3,14
		c-0.2,24.1-1,48.2-1.5,72.4c-0.1,3.5-1.9,4.8-4.8,6c-29.8,12.4-60.6,22-91.9,29.9c-7.9,2-11.2,5.1-10.6,10.3
		c0.6,5.5,4.9,8.2,12.7,8.4c16.6,0.5,33.3,1.4,49.9,1.8c12,0.3,31.8-56.5,44.6-56.5c-1.5,6.9-10.7,70.8-12.6,78.2
		c-6,24.1-13.8,47.6-23.9,70.3c-1.3,3-2.7,4.9-6.5,4.9c-22.6,0.2-45.2,0.9-67.9,0.9c-11.3,0-22.6-0.9-33.9-1.3
		c-6.2-0.2-9.6,2.1-10.5,6.9c-0.9,4.8,1.8,8.7,7.6,10.7c16.8,5.8,33.6,11.6,50.5,17.1c10.6,3.5,48.3-40.9,59.7-37.5
		c-1,1.7-28.9,50.6-29.8,52c-34.2,49.1-80.7,80.3-138.2,95.8c-21.6,5.8-43.4,10.2-65.8,10.9c-28.3,0.9-56.6,0.7-84.9,1.2
		c-2.7,0-5.9,1.1-8.1,2.6c-22.7,16.1-45.1,32.6-67.9,48.5c-7,4.9-15.1,8.5-23,11.6c-5.8,2.3-12.8,3.6-17.8-1.8
		c-4.9-5.2-3.8-12.1-1.4-18c3.8-9.2,8.1-18.3,13.1-26.9c21.5-36.9,48.8-69.5,77.6-100.8c46.8-50.8,97.2-97.9,152.4-139.6
		c6.5-4.9,13.2-9.6,19.8-14.4c1.7-1.3,3.7-2.5,5-4.1c1-1.3,2.1-3.6,1.6-4.8c-0.6-1.5-2.9-3.2-4.4-3.2c-4.1,0-8.6,0-12.2,1.6
		c-15.1,6.9-30.6,13.2-44.8,21.7c-57.7,34.6-110.3,75.8-157.2,124.2c-0.8,0.8-1.6,1.5-2.4,2.3C51.3,306.4,50.8,306.2,50.3,306.1z"/>
	<rect x="368.2" y="110" class="st0" width="60" height="57"/>
	<rect x="416.5" y="99" class="st0" width="51" height="56.3"/>
	<rect x="287.5" y="220.7" class="st0" width="144.7" height="33.3"/>
	<rect x="283.5" y="231.7" class="st0" width="144.7" height="33.3"/>
	<rect x="268.2" y="254" class="st0" width="144.7" height="33.3"/>
</g>
</svg>
